<svg xmlns="http://www.w3.org/2000/svg" width="32" height="32" viewBox="0 0 24 24" fill="none" stroke="#a855f7" stroke-width="2" stroke-linecap="round" stroke-linejoin="round" class="lucide lucide-brain"><path d="M12 5a3 3 0 1 0-5.997.125 4 4 0 0 0-2.526 5.77 4 4 0 0 0 .52 8.105 3 3 0 1 0 5.997-.125"/><path d="M12 5a3 3 0 1 1 5.997.125 4 4 0 0 1 2.526 5.77 4 4 0 0 1-.52 8.105 3 3 0 1 1-5.997-.125"/><path d="M9 14.743V17c0 .85.66 1.5 1.5 1.5s1.5-.65 1.5-1.5V13.5l1-1h1.5c.85 0 1.5-.66 1.5-1.5S13.85 9.5 13 9.5H10.5l-1.5 1.5z"/></svg>
